<svg width="28" height="28" viewBox="0 0 28 28" fill="none" xmlns="http://www.w3.org/2000/svg">
<path fill-rule="evenodd" clip-rule="evenodd" d="M18.6666 10.5C18.6666 11.7377 18.1749 12.9247 17.2997 13.7998C16.4246 14.675 15.2376 15.1667 13.9999 15.1667C12.7622 15.1667 11.5753 14.675 10.7001 13.7998C9.82492 12.9247 9.33325 11.7377 9.33325 10.5C9.33325 9.26233 9.82492 8.07535 10.7001 7.20018C11.5753 6.32501 12.7622 5.83334 13.9999 5.83334C15.2376 5.83334 16.4246 6.32501 17.2997 7.20018C18.1749 8.07535 18.6666 9.26233 18.6666 10.5ZM16.3333 10.5C16.3333 11.1188 16.0874 11.7123 15.6498 12.1499C15.2122 12.5875 14.6188 12.8333 13.9999 12.8333C13.3811 12.8333 12.7876 12.5875 12.35 12.1499C11.9124 11.7123 11.6666 11.1188 11.6666 10.5C11.6666 9.88117 11.9124 9.28768 12.35 8.85009C12.7876 8.41251 13.3811 8.16668 13.9999 8.16668C14.6188 8.16668 15.2122 8.41251 15.6498 8.85009C16.0874 9.28768 16.3333 9.88117 16.3333 10.5Z" fill="#F25454"/>
<path fill-rule="evenodd" clip-rule="evenodd" d="M14 1.16667C6.91246 1.16667 1.16663 6.91251 1.16663 14C1.16663 21.0875 6.91246 26.8333 14 26.8333C21.0875 26.8333 26.8333 21.0875 26.8333 14C26.8333 6.91251 21.0875 1.16667 14 1.16667ZM3.49996 14C3.49996 16.4383 4.33179 18.683 5.72596 20.4657C6.70506 19.1799 7.96818 18.1379 9.41663 17.421C10.8651 16.7042 12.4597 16.3319 14.0758 16.3333C15.671 16.3318 17.2455 16.6945 18.6794 17.3936C20.1132 18.0927 21.3686 19.1099 22.3498 20.3677C23.3606 19.0419 24.0413 17.4944 24.3353 15.8534C24.6294 14.2123 24.5285 12.5248 24.0409 10.9305C23.5533 9.33618 22.6931 7.88089 21.5314 6.68505C20.3697 5.4892 18.9399 4.58717 17.3604 4.0536C15.7809 3.52002 14.097 3.37024 12.4481 3.61664C10.7992 3.86304 9.23272 4.49855 7.87819 5.47057C6.52366 6.44259 5.42007 7.72319 4.65873 9.2064C3.89738 10.6896 3.50017 12.3328 3.49996 14ZM14 24.5C11.5896 24.5036 9.25194 23.6744 7.38263 22.1527C8.13505 21.0755 9.13652 20.1961 10.3019 19.5891C11.4672 18.9822 12.7619 18.6657 14.0758 18.6667C15.3733 18.6656 16.6524 18.9742 17.8067 19.5667C18.9611 20.1592 19.9574 21.0185 20.713 22.0733C18.8291 23.6445 16.453 24.5034 14 24.5Z" fill="#F25454"/>
</svg>
