<svg width="10" height="9" viewBox="0 0 10 9" fill="none" xmlns="http://www.w3.org/2000/svg">
<path d="M4.60803 7.97964L4.60731 7.979C3.3096 6.82468 2.27354 5.90183 1.55589 5.04117C0.843666 4.18702 0.5 3.45711 0.5 2.69755C0.5 1.4721 1.47702 0.5 2.75 0.5C3.47217 0.5 4.17043 0.832186 4.62243 1.35285L5 1.78778L5.37757 1.35285C5.82957 0.832186 6.52783 0.5 7.25 0.5C8.52298 0.5 9.5 1.4721 9.5 2.69755C9.5 3.45712 9.15633 4.18705 8.444 5.04191C7.72634 5.90318 6.69043 6.82709 5.39288 7.98373C5.39269 7.98391 5.39249 7.98408 5.39229 7.98426L5.00126 8.33079L4.60803 7.97964Z" stroke="#F25454"/>
</svg>
