<svg width="20" height="20" viewBox="0 0 17 17" fill="none" xmlns="http://www.w3.org/2000/svg">
<path d="M6.81837 2.98752C6.9115 2.73881 7.07678 2.52357 7.29303 2.3694C7.50928 2.21523 7.76664 2.12915 8.03213 2.1222C8.29762 2.11525 8.55913 2.18774 8.78316 2.33038C9.00718 2.47302 9.1835 2.67931 9.28952 2.92281C10.2821 3.16804 11.1668 3.73232 11.8076 4.529C12.4484 5.32569 12.81 6.31071 12.8368 7.3328L12.9188 10.4631L14.1877 12.2625C14.2573 12.3611 14.2988 12.4767 14.3078 12.5971C14.3168 12.7174 14.293 12.838 14.2388 12.9459C14.1847 13.0537 14.1023 13.1449 14.0004 13.2096C13.8985 13.2743 13.781 13.3102 13.6603 13.3133L10.638 13.3924C10.5723 13.9497 10.308 14.4647 9.89356 14.843C9.47908 15.2214 8.94217 15.4377 8.38119 15.4524C7.82021 15.4671 7.27272 15.2791 6.83901 14.923C6.4053 14.5669 6.11441 14.0665 6.01963 13.5134L2.99733 13.5925C2.87668 13.5957 2.75742 13.5661 2.6523 13.5068C2.54717 13.4475 2.4601 13.3608 2.4004 13.2559C2.34069 13.151 2.31058 13.0318 2.31328 12.9112C2.31598 12.7905 2.35138 12.6728 2.41572 12.5707L3.58868 10.7074L3.50671 7.57712C3.45044 5.42852 4.85588 3.58043 6.81837 2.98752ZM7.38649 13.4776C7.46043 13.6708 7.59248 13.8364 7.76444 13.9514C7.9364 14.0664 8.13981 14.1253 8.34663 14.1199C8.55346 14.1145 8.75351 14.045 8.91921 13.9211C9.08492 13.7973 9.20812 13.625 9.27185 13.4282L7.38583 13.4776L7.38649 13.4776ZM8.08452 4.12277C7.20077 4.14591 6.3624 4.51917 5.75386 5.16044C5.14532 5.80171 4.81644 6.65846 4.83958 7.54222L4.92684 10.8744C4.93032 11.006 4.89473 11.1358 4.82456 11.2472L4.208 12.227L12.3792 12.0131L11.7122 11.0669C11.6365 10.9592 11.5944 10.8315 11.5912 10.6999L11.504 7.3677C11.4808 6.48395 11.1076 5.64559 10.4663 5.03704C9.82502 4.4285 8.96827 4.09963 8.08452 4.12277Z" fill="#F5F5F5"/>
</svg>
