<svg width="34" height="34" viewBox="0 0 34 34" fill="none" xmlns="http://www.w3.org/2000/svg">
<path d="M15.4507 27.8212L15.4497 27.8202C11.7866 24.4986 8.80706 21.7954 6.73419 19.2611C4.66994 16.7374 3.58334 14.4728 3.58334 12.0417C3.58334 8.09255 6.67589 5 10.625 5C12.8629 5 15.0225 6.04545 16.429 7.69709L17 8.36764L17.571 7.69709C18.9775 6.04545 21.1371 5 23.375 5C27.3241 5 30.4167 8.09255 30.4167 12.0417C30.4167 14.4728 29.3301 16.7374 27.2657 19.2631C25.1956 21.7956 22.2215 24.4983 18.5656 27.8206L18.5514 27.8335L18.5498 27.835L17.0019 29.2334L15.4507 27.8212Z" fill="#F25454" stroke="black" stroke-width="1.5"/>
</svg>
