<svg width="34" height="34" viewBox="0 0 31 31" fill="none" xmlns="http://www.w3.org/2000/svg">
<path d="M15.4997 30.0306C23.525 30.0306 30.0307 26.3441 30.0307 21.7964C30.0307 17.2488 23.525 13.5622 15.4997 13.5622C7.47451 13.5622 0.968781 17.2488 0.968781 21.7964C0.968781 26.3441 7.47451 30.0306 15.4997 30.0306Z" fill="#E2E0E0"/>
<path d="M15.4997 25.187C20.5824 25.187 24.7027 23.669 24.7027 21.7964C24.7027 19.9239 20.5824 18.4059 15.4997 18.4059C10.4171 18.4059 6.29678 19.9239 6.29678 21.7964C6.29678 23.669 10.4171 25.187 15.4997 25.187Z" fill="#CECCCC"/>
<path d="M9.20299 26.1557C10.273 26.1557 11.1405 25.2883 11.1405 24.2183C11.1405 23.1482 10.273 22.2808 9.20299 22.2808C8.13296 22.2808 7.26553 23.1482 7.26553 24.2183C7.26553 25.2883 8.13296 26.1557 9.20299 26.1557Z" fill="#F3D4B7"/>
<path d="M26.1558 29.5463C27.2258 29.5463 28.0932 28.6788 28.0932 27.6088C28.0932 26.5388 27.2258 25.6714 26.1558 25.6714C25.0858 25.6714 24.2183 26.5388 24.2183 27.6088C24.2183 28.6788 25.0858 29.5463 26.1558 29.5463Z" fill="#F3D4B7"/>
<path d="M23.3679 8.83699C23.3679 14.8538 15.4997 21.7964 15.4997 21.7964C15.4997 21.7964 7.63147 14.8538 7.63147 8.83699C7.63147 4.49145 11.1542 0.968719 15.4997 0.968719C19.8453 0.968719 23.3679 4.49145 23.3679 8.83699Z" fill="#F79CAF"/>
<path d="M23.3682 8.83723C23.3682 14.8537 15.4997 21.7964 15.4997 21.7964C15.4997 21.7964 15.0432 21.3932 14.3494 20.6975C16.5339 18.5052 21.0675 13.4042 21.0675 8.83723C21.0675 4.88239 18.1498 1.6093 14.3494 1.05228C19.1145 0.352853 23.3682 4.04614 23.3682 8.83723Z" fill="#E3889B"/>
<path d="M15.4997 12.5935C17.6398 12.5935 19.3747 10.8586 19.3747 8.71858C19.3747 6.57852 17.6398 4.84366 15.4997 4.84366C13.3597 4.84366 11.6248 6.57852 11.6248 8.71858C11.6248 10.8586 13.3597 12.5935 15.4997 12.5935Z" fill="#E2E0E0"/>
<path d="M19.3746 8.71858C19.3746 11.3645 16.7821 13.2209 14.2888 12.4004C15.8358 11.8924 16.9528 10.4363 16.9528 8.71858C16.9528 7.00089 15.8358 5.54477 14.2888 5.03679C16.7821 4.21628 19.3746 6.07273 19.3746 8.71858Z" fill="#CECCCC"/>
<path d="M30.9995 21.7964C30.9995 17.7149 26.8978 14.9946 23.0488 13.7373C23.821 12.1447 24.3368 10.4703 24.3368 8.837C24.3368 3.96429 20.3725 0 15.4998 0C10.6272 0 6.66288 3.96429 6.66288 8.837C6.66288 10.4703 7.17866 12.1447 7.9508 13.7373C-1.15926 16.7131 -2.7312 24.2239 4.74721 28.4617C10.0787 31.4829 18.1414 31.7676 23.9758 29.5276C24.5088 30.1324 25.2882 30.515 26.1558 30.515C28.2158 30.515 29.6204 28.4222 28.8501 26.5211C30.2592 25.1071 30.9995 23.487 30.9995 21.7964ZM15.4998 1.93746C19.3042 1.93746 22.3993 5.03255 22.3993 8.837C22.3993 12.8593 18.3847 17.6749 15.4994 20.4693C12.6127 17.6765 8.60034 12.8619 8.60034 8.837C8.60034 5.03255 11.6954 1.93746 15.4998 1.93746ZM12.0978 23.9677C11.8966 21.6251 9.11982 20.4811 7.32652 22.0017C7.28698 21.928 7.26561 21.8587 7.26561 21.7964C7.26561 21.284 8.67027 20.1646 12.0232 19.6369C13.4964 21.3094 14.7306 22.4096 14.8589 22.5228C15.2251 22.8459 15.7745 22.8459 16.1407 22.5228C16.269 22.4096 17.5032 21.3093 18.9765 19.6369C22.3294 20.1646 23.734 21.284 23.734 21.7964C23.734 22.1475 23.0889 22.7631 21.6724 23.2849C18.9292 24.2956 15.0391 24.4202 12.0978 23.9677ZM9.20307 23.2495C9.7372 23.2495 10.1718 23.6841 10.1718 24.2183C10.1718 24.7524 9.7372 25.187 9.20307 25.187C8.66893 25.187 8.23434 24.7524 8.23434 24.2183C8.23434 23.6841 8.66893 23.2495 9.20307 23.2495ZM5.70244 26.7761C-0.740282 23.1251 1.57547 17.7004 8.90222 15.4684C9.43502 16.339 10.0207 17.1674 10.6111 17.9303C8.41095 18.4097 5.32815 19.5466 5.32815 21.7964C5.32815 22.3246 5.51723 23.0632 6.32794 23.7957C6.06989 25.5596 7.44337 27.1244 9.20307 27.1244C10.2006 27.1244 11.0822 26.6191 11.6058 25.8512C17.6071 26.8327 25.6715 25.3976 25.6715 21.7964C25.6715 19.5469 22.5899 18.4099 20.3886 17.9303C20.979 17.1674 21.5646 16.339 22.0974 15.4684C26.3527 16.7647 29.062 19.204 29.062 21.7964C29.062 23.1474 28.3368 24.2616 27.562 25.0666C25.5979 23.9758 23.161 25.4553 23.2527 27.728C18.0112 29.7311 10.5593 29.5282 5.70244 26.7761ZM26.1558 28.5775C25.6217 28.5775 25.1871 28.1429 25.1871 27.6088C25.1871 27.0747 25.6217 26.6401 26.1558 26.6401C26.69 26.6401 27.1246 27.0747 27.1246 27.6088C27.1246 28.1429 26.69 28.5775 26.1558 28.5775Z" fill="black"/>
<path d="M15.4997 13.5622C18.1705 13.5622 20.3434 11.3893 20.3434 8.71856C20.3434 6.04777 18.1705 3.87491 15.4997 3.87491C12.829 3.87491 10.6561 6.04777 10.6561 8.71856C10.6561 11.3893 12.829 13.5622 15.4997 13.5622ZM15.4997 5.81237C17.1022 5.81237 18.4059 7.1161 18.4059 8.71856C18.4059 10.321 17.1022 11.6248 15.4997 11.6248C13.8973 11.6248 12.5936 10.321 12.5936 8.71856C12.5936 7.1161 13.8973 5.81237 15.4997 5.81237Z" fill="black"/>
</svg>
