<svg width="17" height="17" viewBox="0 0 17 17" fill="none" xmlns="http://www.w3.org/2000/svg">
<path d="M4.93896 1.21611C4.90053 1.239 4.83198 1.29019 4.78581 1.32564C3.93337 1.96444 2.83376 3.00748 2.53827 4.23568C2.04478 6.29253 4.00369 9.78261 4.616 10.8034C5.22864 11.8241 7.38593 15.1952 9.43114 15.727C9.77185 15.8165 10.151 15.8491 10.5576 15.8236C11.4962 15.7647 12.4316 15.4068 13.0426 15.121C13.0426 15.121 13.1735 15.0621 13.2264 15.0308C13.3602 14.9502 13.4874 14.8129 13.6152 14.611C13.6804 14.5078 13.7218 14.3912 13.7448 14.3118C13.7704 14.2232 13.8112 14.0491 13.7981 13.8762C13.7802 13.6395 13.733 13.4603 13.6535 13.326C13.5942 13.2274 12.1792 11.2648 12.1699 11.2533L12.1586 11.2402C12.0815 11.1353 11.9952 11.0459 11.9019 10.9742C11.6573 10.7864 11.3532 10.6938 11.0452 10.7127C10.8495 10.725 10.6595 10.7838 10.4977 10.8812L9.67429 11.3724C9.59704 11.4186 9.46853 11.4524 9.4271 11.4506C9.38417 11.4464 9.35525 11.4402 9.33688 11.4355L6.25128 6.29321C6.24394 6.28067 6.24158 6.26984 6.2407 6.26246C6.24448 6.25697 6.24855 6.25239 6.25099 6.24871C6.2755 6.2218 6.3772 6.14319 6.49684 6.07085L7.31385 5.57727C7.74543 5.31851 7.98641 4.79156 7.90111 4.30158C7.87074 4.12691 7.8016 3.98298 7.76988 3.91539L7.75412 3.87793C7.746 3.8605 6.69455 1.72447 6.64384 1.64098C6.51858 1.43228 6.27374 1.26823 5.89568 1.13914C5.68556 1.06739 5.40021 1.05286 5.21722 1.10439C5.09946 1.13805 5.00798 1.17466 4.93896 1.21611ZM5.96036 2.03883C6.02132 2.15134 6.97915 4.09248 7.02925 4.19417L7.06279 4.2716C7.07699 4.3012 7.1103 4.37089 7.12216 4.43793C7.15256 4.61344 7.06525 4.80534 6.90595 4.90102L6.08796 5.39515C5.99233 5.45276 5.75695 5.60294 5.63809 5.75035C5.55918 5.84872 5.50899 5.93976 5.47602 6.05279C5.42111 6.27107 5.45445 6.49897 5.57189 6.69773L8.68859 11.8918C8.80723 12.0892 9.02915 12.2055 9.34845 12.2373C9.59526 12.2618 9.90028 12.1581 10.0792 12.0513L10.904 11.5592C10.9591 11.5261 11.0252 11.5062 11.0945 11.5016C11.2101 11.4945 11.329 11.5308 11.4206 11.6011C11.474 11.6421 11.5127 11.6958 11.5254 11.7134C11.5376 11.7301 11.5477 11.7426 11.557 11.753C11.6931 11.9396 12.9087 13.6312 12.9732 13.7278C12.9733 13.7283 12.9984 13.7808 13.0103 13.9359C13.012 13.9578 13.0068 14.0193 12.9858 14.092C12.9706 14.1443 12.9549 14.1768 12.9475 14.1881C12.8688 14.3123 12.8224 14.3504 12.8221 14.3515C12.7905 14.3689 12.7272 14.3964 12.7164 14.4012C12.1587 14.6619 11.3231 14.9837 10.508 15.0347C10.1857 15.055 9.89114 15.0306 9.63123 14.9623C8.234 14.599 6.42135 12.2754 5.29388 10.3965C4.16608 8.51784 2.96945 5.82487 3.30669 4.42011C3.54923 3.40719 4.51037 2.5196 5.25088 1.96441L5.27928 1.94301C5.29586 1.93026 5.32615 1.90611 5.34109 1.89618C5.36526 1.8837 5.39865 1.87444 5.42527 1.86678C5.4639 1.85931 5.57542 1.86525 5.63975 1.88742C5.86078 1.96314 5.95289 2.03338 5.96036 2.03883Z" fill="#010002"/>
</svg>
