<svg width="28" height="29" viewBox="0 0 28 29" fill="none" xmlns="http://www.w3.org/2000/svg">
<path d="M5.83684 26.0328H22.1702C23.457 26.0328 24.5035 25.0034 24.5035 23.7377V13.4098C24.5037 13.2591 24.4735 13.1099 24.4149 12.9706C24.3562 12.8314 24.2702 12.7049 24.1617 12.5985L14.8283 3.41819C14.7201 3.31153 14.5915 3.22691 14.45 3.16918C14.3085 3.11144 14.1567 3.08173 14.0035 3.08173C13.8503 3.08173 13.6986 3.11144 13.557 3.16918C13.4155 3.22691 13.2869 3.31153 13.1787 3.41819L3.84534 12.5985C3.73685 12.7049 3.65079 12.8314 3.59213 12.9706C3.53347 13.1099 3.50335 13.2591 3.50351 13.4098V23.7377C3.50351 25.0034 4.55001 26.0328 5.83684 26.0328ZM11.6702 23.7377V18H16.3368V23.7377H11.6702ZM5.83684 13.8849L14.0035 5.85212L22.1702 13.8849L22.1713 23.7377H18.6702V18C18.6702 16.7343 17.6237 15.7049 16.3368 15.7049H11.6702C10.3833 15.7049 9.33684 16.7343 9.33684 18V23.7377H5.83684V13.8849Z" fill="#F25454"/>
</svg>
