<svg width="20" height="20" viewBox="0 0 20 20" fill="none" xmlns="http://www.w3.org/2000/svg">
<path d="M13.8293 0H2.26172C1.01445 0 0 1.15742 0 2.58046V14.1458C0 14.6935 0.542929 15.0022 0.926171 14.6899L4.14765 12.0676C4.41796 11.8478 4.73593 11.7315 5.06797 11.7315H12.1535C13.4008 11.7315 14.4152 10.5741 14.4152 9.15106V0.668514C14.4152 0.299494 14.1527 0 13.8293 0ZM10.9832 8.09838H4.21328C3.88984 8.09838 3.62734 7.79933 3.62734 7.42986C3.62734 7.06084 3.88984 6.76135 4.21328 6.76135H10.9832C11.3066 6.76135 11.5691 7.06084 11.5691 7.42986C11.5691 7.79933 11.3066 8.09838 10.9832 8.09838ZM10.9832 4.97864H4.21328C3.88984 4.97864 3.62734 4.6796 3.62734 4.31013C3.62734 3.94111 3.88984 3.64162 4.21328 3.64162H10.9832C11.3066 3.64162 11.5691 3.94111 11.5691 4.31013C11.5691 4.6796 11.3066 4.97864 10.9832 4.97864Z" fill="#2E475E"/>
<path d="M20 7.76594V19.3308C20 19.8748 19.4598 20.1895 19.0738 19.875L15.8523 17.253C15.582 17.0333 15.2641 16.917 14.932 16.917H7.84649C6.59923 16.917 5.58478 15.7591 5.58478 14.3361V13.0686H12.1535C14.0469 13.0686 15.5871 11.3113 15.5871 9.1511V5.18503H17.7383C18.9855 5.18503 20 6.34289 20 7.76594Z" fill="#2E475E"/>
</svg>
