<svg width="28" height="29" viewBox="0 0 28 29" fill="none" xmlns="http://www.w3.org/2000/svg">
<path fill-rule="evenodd" clip-rule="evenodd" d="M18.6667 11.1147C18.6667 12.3321 18.175 13.4997 17.2998 14.3605C16.4247 15.2213 15.2377 15.7049 14 15.7049C12.7623 15.7049 11.5753 15.2213 10.7002 14.3605C9.82501 13.4997 9.33334 12.3321 9.33334 11.1147C9.33334 9.89736 9.82501 8.72983 10.7002 7.86901C11.5753 7.00819 12.7623 6.52458 14 6.52458C15.2377 6.52458 16.4247 7.00819 17.2998 7.86901C18.175 8.72983 18.6667 9.89736 18.6667 11.1147ZM16.3333 11.1147C16.3333 11.7234 16.0875 12.3072 15.6499 12.7376C15.2123 13.168 14.6188 13.4098 14 13.4098C13.3812 13.4098 12.7877 13.168 12.3501 12.7376C11.9125 12.3072 11.6667 11.7234 11.6667 11.1147C11.6667 10.5061 11.9125 9.92229 12.3501 9.49188C12.7877 9.06147 13.3812 8.81966 14 8.81966C14.6188 8.81966 15.2123 9.06147 15.6499 9.49188C16.0875 9.92229 16.3333 10.5061 16.3333 11.1147Z" fill="white"/>
<path fill-rule="evenodd" clip-rule="evenodd" d="M14 1.93442C6.91251 1.93442 1.16667 7.58606 1.16667 14.5574C1.16667 21.5287 6.91251 27.1803 14 27.1803C21.0875 27.1803 26.8333 21.5287 26.8333 14.5574C26.8333 7.58606 21.0875 1.93442 14 1.93442ZM3.50001 14.5574C3.50001 16.9557 4.33184 19.1636 5.72601 20.917C6.70511 19.6523 7.96822 18.6274 9.41668 17.9223C10.8651 17.2172 12.4597 16.8511 14.0758 16.8524C15.6711 16.851 17.2456 17.2076 18.6794 17.8953C20.1133 18.583 21.3686 19.5835 22.3498 20.8206C23.3607 19.5166 24.0413 17.9945 24.3354 16.3803C24.6294 14.7662 24.5285 13.1063 24.0409 11.5382C23.5533 9.97 22.6931 8.53857 21.5314 7.36233C20.3697 6.18609 18.94 5.29885 17.3605 4.77402C15.7809 4.24919 14.0971 4.10186 12.4482 4.34422C10.7993 4.58658 9.23276 5.21167 7.87824 6.16776C6.52371 7.12385 5.42012 8.38345 4.65877 9.84235C3.89743 11.3012 3.50022 12.9175 3.50001 14.5574ZM14 24.8852C11.5896 24.8888 9.25198 24.0732 7.38267 22.5764C8.13509 21.5169 9.13657 20.6519 10.3019 20.0549C11.4672 19.4579 12.7619 19.1466 14.0758 19.1475C15.3734 19.1465 16.6524 19.45 17.8068 20.0328C18.9611 20.6156 19.9574 21.4608 20.713 22.4984C18.8292 24.0437 16.453 24.8886 14 24.8852Z" fill="white"/>
</svg>
