<svg width="28" height="28" viewBox="0 0 28 28" fill="none" xmlns="http://www.w3.org/2000/svg">
<path d="M13.1208 2.83501C15.382 2.65674 17.644 3.16922 19.6076 4.30466C21.5711 5.44009 23.1437 7.14496 24.1171 9.19367C25.0906 11.2424 25.4191 13.5384 25.0591 15.7778C24.6991 18.0173 23.6677 20.0947 22.1012 21.7352C20.5348 23.3756 18.5071 24.5018 16.2867 24.9647C14.0662 25.4275 11.7575 25.2053 9.66604 24.3274C7.57461 23.4495 5.79903 21.9572 4.57423 20.0481C3.34944 18.139 2.73317 15.903 2.80696 13.636C2.81109 13.4981 2.84235 13.3624 2.89894 13.2366C2.95553 13.1108 3.03634 12.9973 3.13677 12.9028C3.23719 12.8082 3.35527 12.7343 3.48424 12.6854C3.61321 12.6364 3.75057 12.6134 3.88846 12.6175C4.02634 12.6216 4.16207 12.6529 4.28788 12.7095C4.41368 12.7661 4.52711 12.8469 4.62169 12.9473C4.71627 13.0477 4.79014 13.1658 4.83908 13.2948C4.88803 13.4238 4.91109 13.5611 4.90696 13.699C4.83601 15.845 5.52618 17.947 6.85542 19.6332C8.18467 21.3195 10.0674 22.4814 12.1706 22.9135C14.2738 23.3456 16.4621 23.0201 18.3485 21.9945C20.2349 20.9689 21.6979 19.3094 22.4788 17.3092C23.2597 15.3091 23.3082 13.0972 22.6157 11.0648C21.9232 9.03237 20.5344 7.31027 18.6947 6.20301C16.8551 5.09574 14.6831 4.67465 12.563 5.01419C10.4428 5.35373 8.51102 6.43202 7.10916 8.05841L6.82356 8.40561H10.1542L10.297 8.41681C10.5483 8.45139 10.7786 8.57578 10.9453 8.767C11.112 8.95822 11.2038 9.20332 11.2038 9.45701C11.2038 9.71069 11.112 9.9558 10.9453 10.147C10.7786 10.3382 10.5483 10.4626 10.297 10.4972L10.1542 10.507H4.55416L4.41136 10.4972C4.18434 10.466 3.97376 10.3615 3.81173 10.1994C3.6497 10.0374 3.54513 9.82682 3.51396 9.59981L3.50416 9.45701V3.85701L3.51396 3.71421C3.54513 3.4872 3.6497 3.27661 3.81173 3.11458C3.97376 2.95256 4.18434 2.84798 4.41136 2.81681L4.55416 2.80701L4.69696 2.81681C4.92397 2.84798 5.13455 2.95256 5.29658 3.11458C5.45861 3.27661 5.56318 3.4872 5.59436 3.71421L5.60416 3.85701L5.60276 6.59121C7.52432 4.40853 10.2215 3.06146 13.1208 2.83641V2.83501ZM13.65 8.40561L13.7928 8.41541C14.0198 8.44658 14.2303 8.55115 14.3924 8.71318C14.5544 8.87521 14.659 9.08579 14.6902 9.31281L14.7 9.45561V13.9986L17.15 14L17.2928 14.0098C17.5451 14.0433 17.7768 14.1672 17.9445 14.3587C18.1123 14.5502 18.2048 14.7961 18.2048 15.0507C18.2048 15.3053 18.1123 15.5512 17.9445 15.7427C17.7768 15.9342 17.5451 16.0582 17.2928 16.0916L17.15 16.1H13.65L13.5072 16.0916C13.2799 16.0604 13.0692 15.9556 12.9071 15.7933C12.7451 15.631 12.6406 15.4201 12.6098 15.1928L12.6 15.05V9.45561L12.6098 9.31281C12.6409 9.08579 12.7455 8.87521 12.9075 8.71318C13.0696 8.55115 13.2801 8.44658 13.5072 8.41541L13.65 8.40561Z" fill="#F25454"/>
</svg>
