<svg width="28" height="28" viewBox="0 0 28 28" fill="none" xmlns="http://www.w3.org/2000/svg">
<path d="M5.83681 25.6667H22.1701C23.457 25.6667 24.5035 24.6202 24.5035 23.3333V12.8333C24.5036 12.6801 24.4735 12.5284 24.4149 12.3868C24.3562 12.2453 24.2701 12.1167 24.1616 12.0085L14.8283 2.67517C14.7201 2.56673 14.5915 2.4807 14.45 2.42201C14.3084 2.36331 14.1567 2.3331 14.0035 2.3331C13.8503 2.3331 13.6985 2.36331 13.557 2.42201C13.4155 2.4807 13.2869 2.56673 13.1786 2.67517L3.84531 12.0085C3.73682 12.1167 3.65076 12.2453 3.5921 12.3868C3.53344 12.5284 3.50332 12.6801 3.50348 12.8333V23.3333C3.50348 24.6202 4.54998 25.6667 5.83681 25.6667ZM11.6701 23.3333V17.5H16.3368V23.3333H11.6701ZM5.83681 13.3163L14.0035 5.14967L22.1701 13.3163L22.1713 23.3333H18.6701V17.5C18.6701 16.2132 17.6236 15.1667 16.3368 15.1667H11.6701C10.3833 15.1667 9.33681 16.2132 9.33681 17.5V23.3333H5.83681V13.3163Z" fill="white"/>
</svg>
