<svg width="20" height="20" viewBox="0 0 15 15" fill="none" xmlns="http://www.w3.org/2000/svg">
<g clip-path="url(#clip0_620:626)">
<path d="M0.0921534 6.96798C0.221691 6.79078 3.30813 2.62913 7.25007 2.62913C11.192 2.62913 14.2786 6.79078 14.408 6.96781C14.5307 7.13592 14.5307 7.36393 14.408 7.53204C14.2786 7.70924 11.192 11.8709 7.25007 11.8709C3.30813 11.8709 0.221691 7.70921 0.0921534 7.53218C-0.0307004 7.3641 -0.0307004 7.13592 0.0921534 6.96798ZM7.25007 10.9149C10.1537 10.9149 12.6686 8.15268 13.4131 7.24969C12.6696 6.3459 10.16 3.58517 7.25007 3.58517C4.34655 3.58517 1.83184 6.34686 1.08708 7.25034C1.83057 8.1541 4.34018 10.9149 7.25007 10.9149Z" fill="black"/>
<path d="M7.25014 4.38187C8.83161 4.38187 10.1183 5.66855 10.1183 7.25001C10.1183 8.83148 8.83161 10.1182 7.25014 10.1182C5.66868 10.1182 4.382 8.83148 4.382 7.25001C4.382 5.66855 5.66868 4.38187 7.25014 4.38187ZM7.25014 9.16209C8.30451 9.16209 9.16222 8.30435 9.16222 7.25001C9.16222 6.19567 8.30448 5.33794 7.25014 5.33794C6.1958 5.33794 5.33807 6.19567 5.33807 7.25001C5.33807 8.30435 6.19578 9.16209 7.25014 9.16209Z" fill="black"/>
</g>
<defs>
<clipPath id="clip0_620:626">
<rect width="14.5" height="14.5" fill="white" transform="matrix(-1 0 0 1 14.5 0)"/>
</clipPath>
</defs>
</svg>
