<svg width="20" height="20" viewBox="0 0 14 10" fill="none" xmlns="http://www.w3.org/2000/svg">
<path d="M13.282 0H0.717963C0.323066 0 0 0.323066 0 0.717936V8.61537C0 9.01021 0.323066 9.33333 0.717963 9.33333H13.282C13.6769 9.33333 14 9.01027 14 8.61537V0.717936C14 0.323066 13.6769 0 13.282 0ZM13.0126 0.538425L7.41299 4.73847C7.31231 4.81509 7.15776 4.86302 6.99996 4.86231C6.84219 4.86302 6.68767 4.81509 6.58696 4.73847L0.987354 0.538425H13.0126ZM10.0215 5.0156L13.0727 8.78485C13.0758 8.78862 13.0796 8.79149 13.0828 8.79491H0.917162C0.920389 8.79133 0.924162 8.78862 0.927225 8.78485L3.97851 5.0156C4.072 4.90002 4.05428 4.73057 3.93848 4.63686C3.82289 4.54337 3.65345 4.56109 3.55993 4.6767L0.538452 8.40914V0.874971L6.26406 5.16919C6.47928 5.32948 6.74112 5.40003 6.99993 5.40074C7.25838 5.40019 7.52045 5.32964 7.73581 5.16919L13.4614 0.874971V8.40909L10.44 4.6767C10.3465 4.56112 10.1769 4.54335 10.0615 4.63686C9.9457 4.73035 9.92792 4.90002 10.0215 5.0156Z" fill="black"/>
</svg>
