<svg width="28" height="29" viewBox="0 0 28 29" fill="none" xmlns="http://www.w3.org/2000/svg">
<path d="M13.1208 3.57541C15.382 3.40006 17.644 3.90414 19.6076 5.02096C21.5712 6.13778 23.1437 7.8147 24.1172 9.82983C25.0906 11.845 25.4191 14.1033 25.0591 16.3061C24.6991 18.5088 23.6677 20.5522 22.1012 22.1657C20.5348 23.7793 18.5072 24.887 16.2867 25.3423C14.0662 25.7976 11.7575 25.579 9.66607 24.7155C7.57464 23.8519 5.79906 22.3842 4.57426 20.5063C3.34947 18.6285 2.7332 16.4292 2.80699 14.1993C2.81112 14.0637 2.84238 13.9302 2.89897 13.8065C2.95556 13.6827 3.03637 13.5711 3.1368 13.4781C3.23722 13.3851 3.3553 13.3124 3.48427 13.2643C3.61325 13.2162 3.7506 13.1935 3.88849 13.1975C4.02637 13.2016 4.1621 13.2323 4.28791 13.288C4.41371 13.3437 4.52715 13.4232 4.62172 13.5219C4.7163 13.6207 4.79017 13.7369 4.83911 13.8637C4.88806 13.9906 4.91112 14.1257 4.90699 14.2613C4.83604 16.3721 5.52621 18.4396 6.85545 20.0982C8.1847 21.7568 10.0674 22.8997 12.1706 23.3247C14.2739 23.7498 16.4622 23.4296 18.3486 22.4208C20.235 21.4121 21.698 19.7797 22.4789 17.8123C23.2598 15.845 23.3082 13.6694 22.6158 11.6703C21.9233 9.67117 20.5344 7.9773 18.6947 6.88819C16.8551 5.79908 14.6832 5.38489 12.563 5.71887C10.4429 6.05284 8.51105 7.11345 7.10919 8.71318L6.82359 9.05468H10.1542L10.297 9.0657C10.5483 9.09971 10.7786 9.22207 10.9453 9.41015C11.112 9.59823 11.2039 9.83932 11.2039 10.0888C11.2039 10.3384 11.112 10.5795 10.9453 10.7675C10.7786 10.9556 10.5483 11.078 10.297 11.112L10.1542 11.1216H4.55419L4.41139 11.112C4.18437 11.0813 3.97379 10.9785 3.81176 10.8191C3.64973 10.6597 3.54516 10.4526 3.51399 10.2293L3.50419 10.0888V4.58065L3.51399 4.44019C3.54516 4.2169 3.64973 4.00977 3.81176 3.8504C3.97379 3.69103 4.18437 3.58817 4.41139 3.5575L4.55419 3.54787L4.69699 3.5575C4.924 3.58817 5.13458 3.69103 5.29661 3.8504C5.45864 4.00977 5.56321 4.2169 5.59439 4.44019L5.60419 4.58065L5.60279 7.27003C7.52435 5.12313 10.2215 3.79815 13.1208 3.57678V3.57541ZM13.65 9.05468L13.7928 9.06432C14.0198 9.09498 14.2304 9.19785 14.3924 9.35722C14.5544 9.51659 14.659 9.72372 14.6902 9.94701L14.7 10.0875V14.556L17.15 14.5574L17.2928 14.567C17.5452 14.5999 17.7768 14.7219 17.9446 14.9102C18.1123 15.0986 18.2048 15.3404 18.2048 15.5908C18.2048 15.8413 18.1123 16.0831 17.9446 16.2715C17.7768 16.4598 17.5452 16.5818 17.2928 16.6147L17.15 16.6229H13.65L13.5072 16.6147C13.28 16.584 13.0692 16.4809 12.9072 16.3212C12.7451 16.1616 12.6407 15.9542 12.6098 15.7306L12.6 15.5902V10.0875L12.6098 9.94701C12.641 9.72372 12.7455 9.51659 12.9076 9.35722C13.0696 9.19785 13.2802 9.09498 13.5072 9.06432L13.65 9.05468Z" fill="white"/>
</svg>
