<svg width="20" height="20" viewBox="0 0 20 20" fill="none" xmlns="http://www.w3.org/2000/svg">
<path d="M8.455 2.70666C8.57951 2.39892 8.79309 2.13538 9.06835 1.94981C9.34362 1.76424 9.66803 1.6651 10 1.6651C10.332 1.6651 10.6564 1.76424 10.9317 1.94981C11.2069 2.13538 11.4205 2.39892 11.545 2.70666C12.7773 3.04557 13.8643 3.77963 14.639 4.79611C15.4137 5.81259 15.8333 7.05528 15.8333 8.33333V12.2475L17.36 14.5375C17.4437 14.663 17.4918 14.8089 17.4991 14.9596C17.5065 15.1103 17.4727 15.2601 17.4016 15.3931C17.3304 15.5262 17.2244 15.6374 17.095 15.7149C16.9656 15.7924 16.8175 15.8334 16.6667 15.8333H12.8875C12.7872 16.5276 12.4401 17.1624 11.9098 17.6216C11.3795 18.0808 10.7015 18.3335 10 18.3335C9.29854 18.3335 8.62055 18.0808 8.09025 17.6216C7.55995 17.1624 7.21284 16.5276 7.1125 15.8333H3.33334C3.18247 15.8334 3.03442 15.7924 2.905 15.7149C2.77557 15.6374 2.66962 15.5262 2.59844 15.3931C2.52727 15.2601 2.49354 15.1103 2.50086 14.9596C2.50818 14.8089 2.55627 14.663 2.64 14.5375L4.16667 12.2475V8.33333C4.16667 5.64666 5.98334 3.38333 8.455 2.70666ZM8.82167 15.8333C8.90773 16.0772 9.06732 16.2884 9.27844 16.4378C9.48955 16.5871 9.7418 16.6673 10.0004 16.6673C10.259 16.6673 10.5113 16.5871 10.7224 16.4378C10.9335 16.2884 11.0931 16.0772 11.1792 15.8333H8.82084H8.82167ZM10 4.16666C8.89493 4.16666 7.83513 4.60565 7.05372 5.38705C6.27232 6.16845 5.83334 7.22826 5.83334 8.33333V12.5C5.83337 12.6646 5.78466 12.8255 5.69334 12.9625L4.89084 14.1667H15.1083L14.3058 12.9625C14.2148 12.8254 14.1664 12.6645 14.1667 12.5V8.33333C14.1667 7.22826 13.7277 6.16845 12.9463 5.38705C12.1649 4.60565 11.1051 4.16666 10 4.16666Z" fill="#2E475E"/>
</svg>
