<svg width="21" height="21" viewBox="0 0 21 21" fill="none" xmlns="http://www.w3.org/2000/svg">
<path d="M20.5 10.4591C20.5 15.9649 16.0898 20.4183 10.6616 20.4183C5.2334 20.4183 0.82312 15.9649 0.82312 10.4591C0.82312 4.95337 5.2334 0.5 10.6616 0.5C16.0898 0.5 20.5 4.95337 20.5 10.4591Z" fill="white" stroke="black"/>
<path d="M15.0616 7.1206H13.3616L12.9566 5.97235C12.9286 5.89378 12.8773 5.82586 12.8098 5.77788C12.7422 5.72989 12.6616 5.70418 12.5791 5.70425H8.7441C8.57535 5.70425 8.4241 5.81174 8.36785 5.97235L7.9616 7.1206H6.2616C5.7091 7.1206 5.2616 7.57332 5.2616 8.13227V13.8988C5.2616 14.4578 5.7091 14.9105 6.2616 14.9105H15.0616C15.6141 14.9105 16.0616 14.4578 16.0616 13.8988V8.13227C16.0616 7.57332 15.6141 7.1206 15.0616 7.1206ZM15.1616 13.8988C15.1616 13.9544 15.1166 14 15.0616 14H6.2616C6.2066 14 6.1616 13.9544 6.1616 13.8988V8.13227C6.1616 8.07663 6.2066 8.0311 6.2616 8.0311H8.59535L8.8091 7.42663L9.09535 6.61476H12.2266L12.5128 7.42663L12.7266 8.0311H15.0616C15.1166 8.0311 15.1616 8.07663 15.1616 8.13227V13.8988ZM10.6616 8.84044C9.5566 8.84044 8.6616 9.74589 8.6616 10.8638C8.6616 11.9817 9.5566 12.8871 10.6616 12.8871C11.7666 12.8871 12.6616 11.9817 12.6616 10.8638C12.6616 9.74589 11.7666 8.84044 10.6616 8.84044ZM10.6616 12.0778C9.9991 12.0778 9.4616 11.534 9.4616 10.8638C9.4616 10.1936 9.9991 9.64978 10.6616 9.64978C11.3241 9.64978 11.8616 10.1936 11.8616 10.8638C11.8616 11.534 11.3241 12.0778 10.6616 12.0778Z" fill="black"/>
</svg>
